# xmcd
#
# Track frame offsets:
#	150
#	14925
#	26248
#	37510
#	40490
#	49490
#	60723
#	73188
#	90583
#	99598
#	116935
#	119363
#	129753
#	144430
#	150650
#	164223
#
# Disc length: 2399 seconds
#
# Revision: 1
# Processed by: cddbd v1.5.1PL0 Copyright (c) Steve Scherf et al.
# Submitted via: CDex 1.50Beta5
#
DISCID=ea095d10
DTITLE=ホーネッツ - 西部警察PARTI Vol.2
DYEAR=1996
DGENRE=Soundtrack
TTITLE0=ホーネッツ/西部警察メインテーマI・フルサイズ
TTITLE1=ホーネッツ/コンクリート・ラプソディーI
TTITLE2=ホーネッツ/FRIENDLY FEELING
TTITLE3=ホーネッツ/BRIDGE No.3
TTITLE4=ホーネッツ/PANIC,THE
TTITLE5=ホーネッツ/孤独のテーマ
TTITLE6=ホーネッツ/RUNNING FIGHTERS I
TTITLE7=石原裕次郎/みんな誰かを愛してる
TTITLE8=ホーネッツ/西部警察メインテーマ・TVサイズ
TTITLE9=ホーネッツ/木暮刑事のテーマ
TTITLE10=ホーネッツ/BRIDGE No.12
TTITLE11=ホーネッツ/大門刑事のテーマII
TTITLE12=ホーネッツ/ダイナミック・シチュエイション
TTITLE13=ホーネッツ/RUNNING FIGHTER II
TTITLE14=ホーネッツ/コンクリート・ラプソディーII
TTITLE15=幸田薫/愛のゆくえ
EXTD=
EXTT0=
EXTT1=
EXTT2=
EXTT3=
EXTT4=
EXTT5=
EXTT6=
EXTT7=
EXTT8=
EXTT9=
EXTT10=
EXTT11=
EXTT12=
EXTT13=
EXTT14=
EXTT15=
PLAYORDER=
